<svg width="512" height="512" viewBox="0 0 512 512" fill="none" xmlns="http://www.w3.org/2000/svg">
<mask id="mask0_176_10" style="mask-type:alpha" maskUnits="userSpaceOnUse" x="0" y="0" width="512" height="512">
<circle cx="256" cy="256" r="256" fill="#D9D9D9"/>
</mask>
<g mask="url(#mask0_176_10)">
<path fill-rule="evenodd" clip-rule="evenodd" d="M261.7 142.605C277.088 142.605 289.562 130.13 289.562 114.743C289.562 99.3551 277.088 86.8809 261.7 86.8809C246.312 86.8809 233.838 99.3551 233.838 114.743C233.838 130.13 246.312 142.605 261.7 142.605ZM261.7 133.834C272.243 133.834 280.791 125.287 280.791 114.743C280.791 104.2 272.243 95.6526 261.7 95.6526C251.157 95.6526 242.609 104.2 242.609 114.743C242.609 125.287 251.157 133.834 261.7 133.834Z" fill="url(#paint0_linear_176_10)"/>
<path d="M221.326 258.374C222.938 263.082 230.549 275.981 242.48 284.559C232.419 272.305 227.234 264.63 225.84 255.794C224.344 246.31 223.777 238.38 228.743 231.35C235.579 222.256 253.638 226.062 259.12 237.606L259.133 237.635C259.669 238.764 260.223 239.93 261.055 240.186C262.216 239.735 263.199 238.142 263.957 237.284C269.762 230.705 288.53 230.77 291.69 243.669C293.164 249.685 292.116 254.633 290.529 259.083C287.24 268.306 279.436 277.077 265.44 285.075C251.106 293.266 236.933 293.447 223.454 283.914C216.998 279.348 214.124 275.465 210.039 267.984C201.411 252.182 202.493 234.124 208.556 218.967C215.013 202.824 227.775 189.686 237.772 184.204C258.797 172.674 282.549 176.821 299.687 194.33C314.586 209.551 318.004 221.418 320.519 241.863C322.085 259.297 320.263 270.602 312.264 286.171C305.6 299.141 299.687 305.649 287.498 314.485C266.537 326.997 249.704 333.704 232.096 336.477C208.749 342.282 195.334 340.218 170.891 338.606C151.026 336.542 134.451 336.219 120.778 339.251C116.199 340.089 95.4956 342.862 78.2754 354.859C62.4741 365.596 58.4109 381.431 66.1503 392.395C82.5966 412.195 99.1718 415.033 114.586 419.547C141.287 426.126 172.438 422.449 180.629 419.805C207.395 413.227 219.907 404.842 244.866 393.169C264.408 383.172 276.792 378.786 295.947 368.854C306.381 363.443 327.162 352.859 352.315 351.505C371.252 350.2 380.564 350.473 400.558 357.438C435.708 371.95 430.161 395.49 399.203 407.422C385.53 413.743 364.311 413.033 349.413 411.679C333.284 410.212 324.718 405.391 309.813 399.36C298.655 394.846 283.048 384.591 283.048 384.591L267.053 393.556C267.053 393.556 284.417 402.735 295.947 407.745C311.015 414.291 319.5 418.32 335.482 422.127C360.119 427.996 388.433 423.917 400.493 420.902C413.65 417.612 440.557 409.45 448.929 388.332C453.25 377.432 443.447 362.662 430.548 355.181C402.88 339.896 384.627 340.541 362.248 338.477C341.598 338.367 330.194 341.121 310.329 347.7C281.951 359.825 265.247 371.306 236.547 383.172C218.294 390.718 207.33 397.554 187.401 404.262C169.536 409.873 150.897 413.736 130.13 409.679L129.883 409.631C116.671 407.051 107.986 405.355 94.0767 394.394C86.7243 386.784 81.4357 374.723 97.366 362.662C103.622 357.567 113.232 354.679 117.553 353.246C131.087 348.76 153.67 349.183 153.67 349.183C153.67 349.183 179.597 352.214 196.818 352.988C214.925 353.802 225.131 353.158 242.932 348.28C273.76 339.831 296.995 330.931 313.554 309.712C328.001 291.199 333.934 273.982 334.708 248.764C334.76 230.963 329.291 212.647 320.261 197.426C310.244 182.914 299.687 173.756 283.564 167.951C264.452 161.689 250.17 162.933 232.225 172.015C213.009 181.74 203.265 197.748 197.398 214.775C190.488 234.827 192.754 255.084 198.301 269.015C208.62 289.783 223.906 301.843 247.833 301.134C270.02 298.748 280.532 289.267 294.205 273.466C301.235 264.694 307.427 251.602 301.816 238.187C297.824 229.374 291.945 224.552 282.532 222.321C271.503 219.707 266.279 224.911 264.086 224.707C261.893 224.503 258.539 216.581 242.48 216.387C234.354 216.842 228.485 219.161 223.583 225.159C216.295 235.026 218.617 251.408 221.326 258.374Z" fill="url(#paint1_linear_176_10)"/>
</g>
<defs>
<linearGradient id="paint0_linear_176_10" x1="261.7" y1="86.8809" x2="261.7" y2="142.605" gradientUnits="userSpaceOnUse">
<stop stop-color="#FEFAE0"/>
<stop offset="1" stop-color="#DDA15E"/>
</linearGradient>
<linearGradient id="paint1_linear_176_10" x1="256.153" y1="164.057" x2="256.153" y2="425.114" gradientUnits="userSpaceOnUse">
<stop stop-color="#FEFAE0"/>
<stop offset="1" stop-color="#DDA15E"/>
</linearGradient>
</defs>
</svg>
